<?xml version="1.0" encoding="UTF-8" standalone="no"?>
<!-- Generator: Adobe Illustrator 16.0.0, SVG Export Plug-In . SVG Version: 6.00 Build 0)  -->

<svg
   xmlns:dc="http://purl.org/dc/elements/1.1/"
   xmlns:cc="http://creativecommons.org/ns#"
   xmlns:rdf="http://www.w3.org/1999/02/22-rdf-syntax-ns#"
   xmlns:svg="http://www.w3.org/2000/svg"
   xmlns="http://www.w3.org/2000/svg"
   xmlns:sodipodi="http://sodipodi.sourceforge.net/DTD/sodipodi-0.dtd"
   xmlns:inkscape="http://www.inkscape.org/namespaces/inkscape"
   version="1.1"
   id="Capa_1"
   x="0px"
   y="0px"
   width="430.117px"
   height="430.118px"
   viewBox="0 0 430.117 430.118"
   style="enable-background:new 0 0 430.117 430.118;"
   xml:space="preserve"
   inkscape:version="0.91 r13725"
   sodipodi:docname="googlebig.svg"><metadata
   id="metadata40"><rdf:RDF><cc:Work
       rdf:about=""><dc:format>image/svg+xml</dc:format><dc:type
         rdf:resource="http://purl.org/dc/dcmitype/StillImage" /><dc:title></dc:title></cc:Work></rdf:RDF></metadata><defs
   id="defs38" /><sodipodi:namedview
   pagecolor="#ffffff"
   bordercolor="#666666"
   borderopacity="1"
   objecttolerance="10"
   gridtolerance="10"
   guidetolerance="10"
   inkscape:pageopacity="0"
   inkscape:pageshadow="2"
   inkscape:window-width="1280"
   inkscape:window-height="998"
   id="namedview36"
   showgrid="false"
   inkscape:zoom="0.54868662"
   inkscape:cx="534.91321"
   inkscape:cy="67.433756"
   inkscape:window-x="1276"
   inkscape:window-y="-4"
   inkscape:window-maximized="1"
   inkscape:current-layer="Capa_1" />
<text
   xml:space="preserve"
   style="font-style:normal;font-variant:normal;font-weight:bold;font-stretch:normal;font-size:40px;line-height:125%;font-family:sans-serif;-inkscape-font-specification:'sans-serif Bold';letter-spacing:0px;word-spacing:0px;fill:#000000;fill-opacity:1;stroke:none;stroke-width:1px;stroke-linecap:butt;stroke-linejoin:miter;stroke-opacity:1"
   x="517.59961"
   y="269.73505"
   id="text3372"
   sodipodi:linespacing="125%"><tspan
     sodipodi:role="line"
     id="tspan3374"
     x="517.59961"
     y="269.73505"
     style="font-style:normal;font-variant:normal;font-weight:bold;font-stretch:normal;font-size:180px;font-family:Montserrat;-inkscape-font-specification:'Montserrat Bold'">GooglePlus</tspan></text>

<g
   id="g6">
</g>
<g
   id="g8">
</g>
<g
   id="g10">
</g>
<g
   id="g12">
</g>
<g
   id="g14">
</g>
<g
   id="g16">
</g>
<g
   id="g18">
</g>
<g
   id="g20">
</g>
<g
   id="g22">
</g>
<g
   id="g24">
</g>
<g
   id="g26">
</g>
<g
   id="g28">
</g>
<g
   id="g30">
</g>
<g
   id="g32">
</g>
<g
   id="g34">
</g>
<text
   xml:space="preserve"
   style="font-style:normal;font-weight:bold;font-size:40px;line-height:125%;font-family:Montserrat;letter-spacing:0px;word-spacing:0px;fill:#000000;fill-opacity:1;stroke:none;stroke-width:1px;stroke-linecap:butt;stroke-linejoin:miter;stroke-opacity:1;-inkscape-font-specification:'Montserrat Bold';font-stretch:normal;font-variant:normal;"
   x="528.53485"
   y="224.17168"
   id="text3368"
   sodipodi:linespacing="125%"><tspan
     sodipodi:role="line"
     id="tspan3370"
     x="528.53485"
     y="224.17168" /></text>
<flowRoot
   xml:space="preserve"
   id="flowRoot3425"
   style="fill:black;stroke:none;stroke-opacity:1;stroke-width:1px;stroke-linejoin:miter;stroke-linecap:butt;fill-opacity:1;font-family:sans-serif;font-style:normal;font-weight:normal;font-size:40px;line-height:125%;letter-spacing:0px;word-spacing:0px"><flowRegion
     id="flowRegion3427"><rect
       id="rect3429"
       width="49.208416"
       height="40.095745"
       x="45.563347"
       y="116.64217" /></flowRegion><flowPara
     id="flowPara3431"></flowPara></flowRoot><g
   id="g3480"
   transform="matrix(0.92274599,0,0,0.89955639,-2.6301533,4.6635916)"><g
     id="g3434">
	<path
   id="path3436"
   d="m 128.108,367.436 c -5.261,-0.663 -8.597,-0.663 -15.167,-0.663 -6.017,0 -41.835,1.317 -69.681,10.646 -4.667,1.714 -27.596,11.977 -43.26,25.336 l 0,18.774 c 0,27.76 22.516,50.268 50.282,50.268 l 164.332,0 c 2.447,-45.21 -39.372,-70.773 -86.506,-104.361 z"
   inkscape:connector-curvature="0" />
	<path
   id="path3438"
   d="m 85.938,302.897 c 0,-11.323 3.554,-17.972 6.873,-25.983 -7.285,0.678 -14.152,1.35 -20.783,1.35 -30.106,0 -55.178,-11.488 -72.027,-26.568 l 0,73.812 0,43.112 c 42.022,-20.16 85.361,-19.078 106.646,-20.488 -9.3,-12.019 -20.709,-24.659 -20.709,-45.235 z"
   inkscape:connector-curvature="0" />
	<path
   id="path3440"
   d="m 148.994,235.01 c 12.453,-14.238 17.324,-32.99 17.324,-42.6 0,-47.921 -27.768,-122.418 -82.781,-122.418 -17.247,0 -35.795,8.635 -46.433,21.931 -11.277,13.989 -13,31.922 -13,49.278 0,44.547 23.389,110.494 80.429,110.494 16.584,0 33.573,-4.232 44.461,-16.685 z"
   inkscape:connector-curvature="0" />
	<path
   id="path3442"
   d="m 421.553,0.031 -371.271,0 C 22.516,0.031 0,22.538 0,50.299 L 0,92.07 C 40.564,52.316 83.116,50.579 117.54,50.579 l 140.149,0 -37.237,33.69 c 0,0 -35.156,0 -40.619,0 16.28,0 40.564,35.99 40.564,80.927 0,49.207 -25.951,69.151 -53.82,91.089 -8.596,8.628 -18.525,17.979 -18.525,32.624 0,14.628 9.93,22.616 17.201,28.617 l 23.908,18.587 c 29.142,24.635 67.266,53.089 67.266,99.008 0,6.539 -3.514,25.664 -5.735,36.676 l 170.862,0 c 27.769,0 50.275,-22.508 50.275,-50.268 l 0,-371.23 C 471.828,22.538 449.321,0.031 421.553,0.031 Z m -0.273,151.659 -33.706,0 0,33.707 c 0,9.305 -7.545,16.849 -16.85,16.849 -9.306,0 -16.851,-7.544 -16.851,-16.849 l 0,-33.707 -33.706,0 c -9.305,0 -16.85,-7.544 -16.85,-16.85 0,-9.305 7.545,-16.849 16.85,-16.849 l 33.706,0 0,-33.706 c 0,-9.306 7.545,-16.85 16.851,-16.85 9.305,0 16.85,7.544 16.85,16.85 l 0,33.707 33.706,0 c 9.306,0 16.85,7.544 16.85,16.849 0,9.305 -7.544,16.849 -16.85,16.849 z"
   inkscape:connector-curvature="0" />
</g><g
     id="g3444">
</g><g
     id="g3446">
</g><g
     id="g3448">
</g><g
     id="g3450">
</g><g
     id="g3452">
</g><g
     id="g3454">
</g><g
     id="g3456">
</g><g
     id="g3458">
</g><g
     id="g3460">
</g><g
     id="g3462">
</g><g
     id="g3464">
</g><g
     id="g3466">
</g><g
     id="g3468">
</g><g
     id="g3470">
</g><g
     id="g3472">
</g></g></svg>