<?xml version="1.0" encoding="UTF-8" standalone="no"?>
<!-- Generator: Adobe Illustrator 16.0.0, SVG Export Plug-In . SVG Version: 6.00 Build 0)  -->

<svg
   xmlns:dc="http://purl.org/dc/elements/1.1/"
   xmlns:cc="http://creativecommons.org/ns#"
   xmlns:rdf="http://www.w3.org/1999/02/22-rdf-syntax-ns#"
   xmlns:svg="http://www.w3.org/2000/svg"
   xmlns="http://www.w3.org/2000/svg"
   xmlns:sodipodi="http://sodipodi.sourceforge.net/DTD/sodipodi-0.dtd"
   xmlns:inkscape="http://www.inkscape.org/namespaces/inkscape"
   version="1.1"
   id="Capa_1"
   x="0px"
   y="0px"
   width="430.117px"
   height="430.118px"
   viewBox="0 0 430.117 430.118"
   style="enable-background:new 0 0 430.117 430.118;"
   xml:space="preserve"
   inkscape:version="0.91 r13725"
   sodipodi:docname="linkedinbig.svg"><metadata
   id="metadata40"><rdf:RDF><cc:Work
       rdf:about=""><dc:format>image/svg+xml</dc:format><dc:type
         rdf:resource="http://purl.org/dc/dcmitype/StillImage" /></cc:Work></rdf:RDF></metadata><defs
   id="defs38" /><sodipodi:namedview
   pagecolor="#ffffff"
   bordercolor="#666666"
   borderopacity="1"
   objecttolerance="10"
   gridtolerance="10"
   guidetolerance="10"
   inkscape:pageopacity="0"
   inkscape:pageshadow="2"
   inkscape:window-width="1280"
   inkscape:window-height="744"
   id="namedview36"
   showgrid="false"
   inkscape:zoom="0.54868662"
   inkscape:cx="534.91321"
   inkscape:cy="67.433756"
   inkscape:window-x="-4"
   inkscape:window-y="-4"
   inkscape:window-maximized="1"
   inkscape:current-layer="Capa_1" />
<g
   id="g3"
   transform="translate(2.3549333,0.177466)">
	<path
   id="LinkedIn__x28_alt_x29_"
   d="M 398.355,0 31.782,0 C 14.229,0 0.002,13.793 0.002,30.817 l 0,368.471 c 0,17.025 14.232,30.83 31.78,30.83 l 366.573,0 c 17.549,0 31.76,-13.814 31.76,-30.83 l 0,-368.471 C 430.115,13.798 415.904,0 398.355,0 Z M 130.4,360.038 l -64.987,0 0,-194.193 64.987,0 0,194.193 z m -32.487,-220.723 -0.437,0 c -21.793,0 -35.92,-14.904 -35.92,-33.563 0,-19.035 14.542,-33.535 36.767,-33.535 22.227,0 35.899,14.496 36.331,33.535 0,18.663 -14.099,33.563 -36.741,33.563 z m 266.746,220.723 -64.966,0 0,-103.9 c 0,-26.107 -9.413,-43.921 -32.907,-43.921 -17.973,0 -28.642,12.018 -33.327,23.621 -1.736,4.144 -2.166,9.94 -2.166,15.728 l 0,108.468 -64.954,0 c 0,0 0.85,-175.979 0,-194.192 l 64.964,0 0,27.531 c 8.624,-13.229 24.035,-32.1 58.534,-32.1 42.76,0 74.822,27.739 74.822,87.414 l 0,111.351 z M 230.883,193.99 c 0.111,-0.182 0.266,-0.401 0.42,-0.614 l 0,0.614 -0.42,0 z"
   inkscape:connector-curvature="0" />
</g><text
   xml:space="preserve"
   style="font-style:normal;font-variant:normal;font-weight:bold;font-stretch:normal;font-size:40px;line-height:125%;font-family:sans-serif;-inkscape-font-specification:'sans-serif Bold';letter-spacing:0px;word-spacing:0px;fill:#000000;fill-opacity:1;stroke:none;stroke-width:1px;stroke-linecap:butt;stroke-linejoin:miter;stroke-opacity:1"
   x="517.59961"
   y="269.73505"
   id="text3372"
   sodipodi:linespacing="125%"><tspan
     sodipodi:role="line"
     id="tspan3374"
     x="517.59961"
     y="269.73505"
     style="font-style:normal;font-variant:normal;font-weight:bold;font-stretch:normal;font-size:180px;font-family:sans-serif;-inkscape-font-specification:'sans-serif Bold'">LinkedIn</tspan></text>

<g
   id="g6">
</g>
<g
   id="g8">
</g>
<g
   id="g10">
</g>
<g
   id="g12">
</g>
<g
   id="g14">
</g>
<g
   id="g16">
</g>
<g
   id="g18">
</g>
<g
   id="g20">
</g>
<g
   id="g22">
</g>
<g
   id="g24">
</g>
<g
   id="g26">
</g>
<g
   id="g28">
</g>
<g
   id="g30">
</g>
<g
   id="g32">
</g>
<g
   id="g34">
</g>
<text
   xml:space="preserve"
   style="font-style:normal;font-weight:bold;font-size:40px;line-height:125%;font-family:Montserrat;letter-spacing:0px;word-spacing:0px;fill:#000000;fill-opacity:1;stroke:none;stroke-width:1px;stroke-linecap:butt;stroke-linejoin:miter;stroke-opacity:1;-inkscape-font-specification:'Montserrat Bold';font-stretch:normal;font-variant:normal;"
   x="528.53485"
   y="224.17168"
   id="text3368"
   sodipodi:linespacing="125%"><tspan
     sodipodi:role="line"
     id="tspan3370"
     x="528.53485"
     y="224.17168" /></text>
</svg>