<?xml version="1.0" encoding="iso-8859-1"?>
<!-- Generator: Adobe Illustrator 18.0.0, SVG Export Plug-In . SVG Version: 6.00 Build 0)  -->
<!DOCTYPE svg PUBLIC "-//W3C//DTD SVG 1.1//EN" "http://www.w3.org/Graphics/SVG/1.1/DTD/svg11.dtd">
<svg version="1.1" id="Capa_1" xmlns="http://www.w3.org/2000/svg" xmlns:xlink="http://www.w3.org/1999/xlink" x="0px" y="0px"
	 viewBox="0 0 471.828 471.828" style="enable-background:new 0 0 471.828 471.828;" xml:space="preserve">
<g>
	<path d="M128.108,367.436c-5.261-0.663-8.597-0.663-15.167-0.663c-6.017,0-41.835,1.317-69.681,10.646
		C38.593,379.133,15.664,389.396,0,402.755v18.774c0,27.76,22.516,50.268,50.282,50.268h164.332
		C217.061,426.587,175.242,401.024,128.108,367.436z"/>
	<path d="M85.938,302.897c0-11.323,3.554-17.972,6.873-25.983c-7.285,0.678-14.152,1.35-20.783,1.35
		c-30.106,0-55.178-11.488-72.027-26.568v73.812v43.112c42.022-20.16,85.361-19.078,106.646-20.488
		C97.347,336.113,85.938,323.473,85.938,302.897z"/>
	<path d="M148.994,235.01c12.453-14.238,17.324-32.99,17.324-42.6c0-47.921-27.768-122.418-82.781-122.418
		c-17.247,0-35.795,8.635-46.433,21.931c-11.277,13.989-13,31.922-13,49.278c0,44.547,23.389,110.494,80.429,110.494
		C121.117,251.695,138.106,247.463,148.994,235.01z"/>
	<path d="M421.553,0.031H50.282C22.516,0.031,0,22.538,0,50.299V92.07c40.564-39.754,83.116-41.491,117.54-41.491h140.149
		l-37.237,33.69c0,0-35.156,0-40.619,0c16.28,0,40.564,35.99,40.564,80.927c0,49.207-25.951,69.151-53.82,91.089
		c-8.596,8.628-18.525,17.979-18.525,32.624c0,14.628,9.93,22.616,17.201,28.617l23.908,18.587
		c29.142,24.635,67.266,53.089,67.266,99.008c0,6.539-3.514,25.664-5.735,36.676h170.862c27.769,0,50.275-22.508,50.275-50.268
		V50.299C471.828,22.538,449.321,0.031,421.553,0.031z M421.28,151.69h-33.706v33.707c0,9.305-7.545,16.849-16.85,16.849
		c-9.306,0-16.851-7.544-16.851-16.849V151.69h-33.706c-9.305,0-16.85-7.544-16.85-16.85c0-9.305,7.545-16.849,16.85-16.849h33.706
		V84.285c0-9.306,7.545-16.85,16.851-16.85c9.305,0,16.85,7.544,16.85,16.85v33.707h33.706c9.306,0,16.85,7.544,16.85,16.849
		C438.13,144.146,430.586,151.69,421.28,151.69z"/>
</g>
<g>
</g>
<g>
</g>
<g>
</g>
<g>
</g>
<g>
</g>
<g>
</g>
<g>
</g>
<g>
</g>
<g>
</g>
<g>
</g>
<g>
</g>
<g>
</g>
<g>
</g>
<g>
</g>
<g>
</g>
</svg>
