<?xml version="1.0" encoding="UTF-8" standalone="no"?>
<!-- Generator: Adobe Illustrator 16.0.0, SVG Export Plug-In . SVG Version: 6.00 Build 0)  -->

<svg
   xmlns:dc="http://purl.org/dc/elements/1.1/"
   xmlns:cc="http://creativecommons.org/ns#"
   xmlns:rdf="http://www.w3.org/1999/02/22-rdf-syntax-ns#"
   xmlns:svg="http://www.w3.org/2000/svg"
   xmlns="http://www.w3.org/2000/svg"
   xmlns:sodipodi="http://sodipodi.sourceforge.net/DTD/sodipodi-0.dtd"
   xmlns:inkscape="http://www.inkscape.org/namespaces/inkscape"
   version="1.1"
   id="Capa_1"
   x="0px"
   y="0px"
   width="430.117px"
   height="430.118px"
   viewBox="0 0 430.117 430.118"
   style="enable-background:new 0 0 430.117 430.118;"
   xml:space="preserve"
   inkscape:version="0.91 r13725"
   sodipodi:docname="twitterbig.svg"><metadata
   id="metadata40"><rdf:RDF><cc:Work
       rdf:about=""><dc:format>image/svg+xml</dc:format><dc:type
         rdf:resource="http://purl.org/dc/dcmitype/StillImage" /><dc:title></dc:title></cc:Work></rdf:RDF></metadata><defs
   id="defs38" /><sodipodi:namedview
   pagecolor="#ffffff"
   bordercolor="#666666"
   borderopacity="1"
   objecttolerance="10"
   gridtolerance="10"
   guidetolerance="10"
   inkscape:pageopacity="0"
   inkscape:pageshadow="2"
   inkscape:window-width="1280"
   inkscape:window-height="998"
   id="namedview36"
   showgrid="false"
   inkscape:zoom="0.54868662"
   inkscape:cx="534.91321"
   inkscape:cy="67.433756"
   inkscape:window-x="1276"
   inkscape:window-y="-4"
   inkscape:window-maximized="1"
   inkscape:current-layer="Capa_1" />
<text
   xml:space="preserve"
   style="font-style:normal;font-variant:normal;font-weight:bold;font-stretch:normal;font-size:40px;line-height:125%;font-family:sans-serif;-inkscape-font-specification:'sans-serif Bold';letter-spacing:0px;word-spacing:0px;fill:#000000;fill-opacity:1;stroke:none;stroke-width:1px;stroke-linecap:butt;stroke-linejoin:miter;stroke-opacity:1"
   x="517.59961"
   y="269.73505"
   id="text3372"
   sodipodi:linespacing="125%"><tspan
     sodipodi:role="line"
     id="tspan3374"
     x="517.59961"
     y="269.73505"
     style="font-style:normal;font-variant:normal;font-weight:bold;font-stretch:normal;font-size:180px;font-family:Montserrat;-inkscape-font-specification:'Montserrat Bold'">Twitter</tspan></text>

<g
   id="g6">
</g>
<g
   id="g8">
</g>
<g
   id="g10">
</g>
<g
   id="g12">
</g>
<g
   id="g14">
</g>
<g
   id="g16">
</g>
<g
   id="g18">
</g>
<g
   id="g20">
</g>
<g
   id="g22">
</g>
<g
   id="g24">
</g>
<g
   id="g26">
</g>
<g
   id="g28">
</g>
<g
   id="g30">
</g>
<g
   id="g32">
</g>
<g
   id="g34">
</g>
<text
   xml:space="preserve"
   style="font-style:normal;font-weight:bold;font-size:40px;line-height:125%;font-family:Montserrat;letter-spacing:0px;word-spacing:0px;fill:#000000;fill-opacity:1;stroke:none;stroke-width:1px;stroke-linecap:butt;stroke-linejoin:miter;stroke-opacity:1;-inkscape-font-specification:'Montserrat Bold';font-stretch:normal;font-variant:normal;"
   x="528.53485"
   y="224.17168"
   id="text3368"
   sodipodi:linespacing="125%"><tspan
     sodipodi:role="line"
     id="tspan3370"
     x="528.53485"
     y="224.17168" /></text>
<g
   id="g3411"
   transform="matrix(0.83918818,0,0,0.84276178,1.9772864,1.9772834)">
    <g
   id="post-twitter">
      <path
   id="path3414"
   d="M 459,0 51,0 C 22.95,0 0,22.95 0,51 l 0,408 c 0,28.05 22.95,51 51,51 l 408,0 c 28.05,0 51,-22.95 51,-51 L 510,51 C 510,22.95 487.05,0 459,0 Z m -58.65,186.15 c -2.55,117.3 -76.5,198.9 -188.7,204 -45.9,2.55 -79.05,-12.75 -109.65,-30.6 33.15,5.101 76.5,-7.649 99.45,-28.05 -33.15,-2.55 -53.55,-20.4 -63.75,-48.45 10.2,2.55 20.4,0 28.05,0 -30.6,-10.2 -51,-28.05 -53.55,-68.85 7.65,5.1 17.85,7.65 28.05,7.65 -22.95,-12.75 -38.25,-61.2 -20.4,-91.8 33.15,35.7 73.95,66.3 140.25,71.4 -17.85,-71.4 79.051,-109.65 117.301,-61.2 17.85,-2.55 30.6,-10.2 43.35,-15.3 -5.1,17.85 -15.3,28.05 -28.05,38.25 12.75,-2.55 25.5,-5.1 35.7,-10.2 -2.551,12.75 -15.301,22.95 -28.051,33.15 z"
   class="twitter"
   inkscape:connector-curvature="0" />
    </g>
  </g><flowRoot
   xml:space="preserve"
   id="flowRoot3425"
   style="fill:black;stroke:none;stroke-opacity:1;stroke-width:1px;stroke-linejoin:miter;stroke-linecap:butt;fill-opacity:1;font-family:sans-serif;font-style:normal;font-weight:normal;font-size:40px;line-height:125%;letter-spacing:0px;word-spacing:0px"><flowRegion
     id="flowRegion3427"><rect
       id="rect3429"
       width="49.208416"
       height="40.095745"
       x="45.563347"
       y="116.64217" /></flowRegion><flowPara
     id="flowPara3431"></flowPara></flowRoot></svg>